<mxfile host="65bd71144e" modified="2020-10-25T10:27:34.648Z" agent="5.0 (Macintosh; Intel Mac OS X 10_15_7) AppleWebKit/537.36 (KHTML, like Gecko) Code/1.50.1 Chrome/83.0.4103.122 Electron/9.2.1 Safari/537.36" etag="SFsiz6mo5gvzRqv_SaFs" version="13.6.5">
    <diagram id="4VKKd6IWvXmH5NwJkmRS" name="Page-1">
        <mxGraphModel dx="1565" dy="1658" grid="1" gridSize="10" guides="1" tooltips="1" connect="1" arrows="1" fold="1" page="1" pageScale="1" pageWidth="827" pageHeight="1169" math="0" shadow="0">
            <root>
                <mxCell id="0"/>
                <mxCell id="1" parent="0"/>
                <mxCell id="B0guJ4K7h7i6kviaL2ei-1" value="Khách hàng&lt;br style=&quot;font-size: 18px;&quot;&gt;của rạp phim" style="shape=umlActor;verticalLabelPosition=bottom;verticalAlign=top;html=1;outlineConnect=0;strokeWidth=2;fontSize=18;" parent="1" vertex="1">
                    <mxGeometry x="-790" y="-480" width="35" height="80" as="geometry"/>
                </mxCell>
                <mxCell id="B0guJ4K7h7i6kviaL2ei-2" value="Đăng nhập" style="ellipse;whiteSpace=wrap;html=1;" parent="1" vertex="1">
                    <mxGeometry x="-440" y="-410" width="120" height="80" as="geometry"/>
                </mxCell>
                <mxCell id="B0guJ4K7h7i6kviaL2ei-3" value="Đăng ký" style="ellipse;whiteSpace=wrap;html=1;" parent="1" vertex="1">
                    <mxGeometry x="-440" y="-220" width="120" height="80" as="geometry"/>
                </mxCell>
                <mxCell id="B0guJ4K7h7i6kviaL2ei-4" value="Đăng xuất" style="ellipse;whiteSpace=wrap;html=1;" parent="1" vertex="1">
                    <mxGeometry x="-440" y="-120" width="120" height="80" as="geometry"/>
                </mxCell>
                <mxCell id="B0guJ4K7h7i6kviaL2ei-11" value="Quản lý &lt;br&gt;rạp phim" style="shape=umlActor;verticalLabelPosition=bottom;verticalAlign=top;html=1;outlineConnect=0;fontSize=20;" parent="1" vertex="1">
                    <mxGeometry x="-58" y="-480" width="40" height="80" as="geometry"/>
                </mxCell>
                <mxCell id="B0guJ4K7h7i6kviaL2ei-12" value="Admin" style="shape=umlActor;verticalLabelPosition=bottom;verticalAlign=top;html=1;outlineConnect=0;fontSize=18;" parent="1" vertex="1">
                    <mxGeometry x="-58" y="-770" width="40" height="80" as="geometry"/>
                </mxCell>
                <mxCell id="B0guJ4K7h7i6kviaL2ei-14" value="Đặt vé" style="ellipse;whiteSpace=wrap;html=1;" parent="1" vertex="1">
                    <mxGeometry x="-590" y="-520" width="120" height="80" as="geometry"/>
                </mxCell>
                <mxCell id="B0guJ4K7h7i6kviaL2ei-15" value="Xem giới thiệu phim" style="ellipse;whiteSpace=wrap;html=1;" parent="1" vertex="1">
                    <mxGeometry x="-590" y="-930" width="120" height="80" as="geometry"/>
                </mxCell>
                <mxCell id="B0guJ4K7h7i6kviaL2ei-17" value="Xem khuyến mãi" style="ellipse;whiteSpace=wrap;html=1;" parent="1" vertex="1">
                    <mxGeometry x="-590" y="-1150" width="120" height="80" as="geometry"/>
                </mxCell>
                <mxCell id="B0guJ4K7h7i6kviaL2ei-18" value="Thanh toán" style="ellipse;whiteSpace=wrap;html=1;" parent="1" vertex="1">
                    <mxGeometry x="-590" y="-710" width="120" height="80" as="geometry"/>
                </mxCell>
                <mxCell id="B0guJ4K7h7i6kviaL2ei-19" value="Quản lý các tài khoản quản lý" style="ellipse;whiteSpace=wrap;html=1;" parent="1" vertex="1">
                    <mxGeometry x="-348" y="-860" width="120" height="80" as="geometry"/>
                </mxCell>
                <mxCell id="B0guJ4K7h7i6kviaL2ei-20" value="Quản lý các chương trình khuyến mãi" style="ellipse;whiteSpace=wrap;html=1;" parent="1" vertex="1">
                    <mxGeometry x="-348" y="-520" width="120" height="80" as="geometry"/>
                </mxCell>
                <mxCell id="B0guJ4K7h7i6kviaL2ei-21" value="Quản lý lịch chiếu" style="ellipse;whiteSpace=wrap;html=1;" parent="1" vertex="1">
                    <mxGeometry x="-348" y="-630" width="120" height="80" as="geometry"/>
                </mxCell>
                <mxCell id="B0guJ4K7h7i6kviaL2ei-22" value="Thực hiện thống kê" style="ellipse;whiteSpace=wrap;html=1;" parent="1" vertex="1">
                    <mxGeometry x="-348" y="-740" width="120" height="80" as="geometry"/>
                </mxCell>
                <mxCell id="iFyN41YhfVEVNa4CwGqs-1" value="Hủy vé" style="ellipse;whiteSpace=wrap;html=1;" parent="1" vertex="1">
                    <mxGeometry x="-590" y="-820" width="120" height="80" as="geometry"/>
                </mxCell>
                <mxCell id="-LDxfyg8iRPk42h-eqll-14" value="" style="endArrow=classic;html=1;dashed=1;strokeColor=#000000;exitX=0.5;exitY=0;exitDx=0;exitDy=0;entryX=0.5;entryY=1;entryDx=0;entryDy=0;" parent="1" source="B0guJ4K7h7i6kviaL2ei-3" target="B0guJ4K7h7i6kviaL2ei-2" edge="1">
                    <mxGeometry width="50" height="50" relative="1" as="geometry">
                        <mxPoint x="-578" y="-320" as="sourcePoint"/>
                        <mxPoint x="-528" y="-370" as="targetPoint"/>
                    </mxGeometry>
                </mxCell>
                <mxCell id="-LDxfyg8iRPk42h-eqll-18" value="&lt;font style=&quot;font-size: 18px&quot;&gt;&amp;lt;&amp;lt;extend&amp;gt;&amp;gt;&lt;/font&gt;" style="text;html=1;strokeColor=none;fillColor=none;align=center;verticalAlign=middle;whiteSpace=wrap;rounded=0;rotation=90;" parent="1" vertex="1">
                    <mxGeometry x="-388" y="-280" width="40" height="20" as="geometry"/>
                </mxCell>
                <mxCell id="-LDxfyg8iRPk42h-eqll-21" value="" style="endArrow=classic;html=1;dashed=1;strokeColor=#000000;exitX=0.988;exitY=0.689;exitDx=0;exitDy=0;entryX=0.5;entryY=0;entryDx=0;entryDy=0;exitPerimeter=0;" parent="1" source="B0guJ4K7h7i6kviaL2ei-14" target="B0guJ4K7h7i6kviaL2ei-2" edge="1">
                    <mxGeometry width="50" height="50" relative="1" as="geometry">
                        <mxPoint x="-578" y="-330" as="sourcePoint"/>
                        <mxPoint x="-528" y="-380" as="targetPoint"/>
                    </mxGeometry>
                </mxCell>
                <mxCell id="_rYu2nPlfyyz6sexi9bu-28" value="&lt;span style=&quot;font-size: 18px&quot;&gt;&amp;lt;&amp;lt;include&amp;gt;&amp;gt;&lt;/span&gt;" style="edgeLabel;html=1;align=center;verticalAlign=middle;resizable=0;points=[];rotation=30;" parent="-LDxfyg8iRPk42h-eqll-21" vertex="1" connectable="0">
                    <mxGeometry x="-0.3139" y="-1" relative="1" as="geometry">
                        <mxPoint x="16.86" y="-15.09" as="offset"/>
                    </mxGeometry>
                </mxCell>
                <mxCell id="-LDxfyg8iRPk42h-eqll-23" value="" style="endArrow=classic;html=1;dashed=1;strokeColor=#000000;exitX=0.5;exitY=1;exitDx=0;exitDy=0;entryX=0.5;entryY=0;entryDx=0;entryDy=0;" parent="1" source="B0guJ4K7h7i6kviaL2ei-18" target="B0guJ4K7h7i6kviaL2ei-14" edge="1">
                    <mxGeometry width="50" height="50" relative="1" as="geometry">
                        <mxPoint x="-550" y="-330" as="sourcePoint"/>
                        <mxPoint x="-600" y="-510" as="targetPoint"/>
                    </mxGeometry>
                </mxCell>
                <mxCell id="B0guJ4K7h7i6kviaL2ei-16" value="Xem lịch chiếu" style="ellipse;whiteSpace=wrap;html=1;" parent="1" vertex="1">
                    <mxGeometry x="-590" y="-1040" width="120" height="80" as="geometry"/>
                </mxCell>
                <mxCell id="-LDxfyg8iRPk42h-eqll-32" value="&lt;font style=&quot;font-size: 16px&quot;&gt;&amp;lt;&amp;lt;include&amp;gt;&amp;gt;&lt;br&gt;&lt;/font&gt;" style="text;html=1;strokeColor=none;fillColor=none;align=center;verticalAlign=middle;whiteSpace=wrap;rounded=0;rotation=90;" parent="1" vertex="1">
                    <mxGeometry x="-540" y="-588" width="40" height="20" as="geometry"/>
                </mxCell>
                <mxCell id="_rYu2nPlfyyz6sexi9bu-5" value="" style="endArrow=none;html=1;entryX=0;entryY=0.5;entryDx=0;entryDy=0;endFill=0;rounded=0;" parent="1" target="B0guJ4K7h7i6kviaL2ei-17" edge="1">
                    <mxGeometry width="50" height="50" relative="1" as="geometry">
                        <mxPoint x="-750" y="-440" as="sourcePoint"/>
                        <mxPoint x="-720" y="-780" as="targetPoint"/>
                        <Array as="points">
                            <mxPoint x="-670" y="-440"/>
                            <mxPoint x="-670" y="-740"/>
                            <mxPoint x="-670" y="-1110"/>
                        </Array>
                    </mxGeometry>
                </mxCell>
                <mxCell id="_rYu2nPlfyyz6sexi9bu-8" value="" style="endArrow=none;html=1;entryX=0;entryY=0.5;entryDx=0;entryDy=0;endFill=0;" parent="1" target="iFyN41YhfVEVNa4CwGqs-1" edge="1">
                    <mxGeometry width="50" height="50" relative="1" as="geometry">
                        <mxPoint x="-670" y="-780" as="sourcePoint"/>
                        <mxPoint x="-590" y="-800.71" as="targetPoint"/>
                    </mxGeometry>
                </mxCell>
                <mxCell id="_rYu2nPlfyyz6sexi9bu-9" value="" style="endArrow=none;html=1;entryX=0;entryY=0.5;entryDx=0;entryDy=0;endFill=0;" parent="1" target="B0guJ4K7h7i6kviaL2ei-18" edge="1">
                    <mxGeometry width="50" height="50" relative="1" as="geometry">
                        <mxPoint x="-670" y="-670" as="sourcePoint"/>
                        <mxPoint x="-590" y="-681.4300000000001" as="targetPoint"/>
                    </mxGeometry>
                </mxCell>
                <mxCell id="_rYu2nPlfyyz6sexi9bu-10" value="" style="endArrow=none;html=1;entryX=0;entryY=0.5;entryDx=0;entryDy=0;endFill=0;" parent="1" target="B0guJ4K7h7i6kviaL2ei-15" edge="1">
                    <mxGeometry width="50" height="50" relative="1" as="geometry">
                        <mxPoint x="-670" y="-890" as="sourcePoint"/>
                        <mxPoint x="-590" y="-920.71" as="targetPoint"/>
                    </mxGeometry>
                </mxCell>
                <mxCell id="_rYu2nPlfyyz6sexi9bu-11" value="" style="endArrow=none;html=1;entryX=0;entryY=0.5;entryDx=0;entryDy=0;endFill=0;" parent="1" target="B0guJ4K7h7i6kviaL2ei-16" edge="1">
                    <mxGeometry width="50" height="50" relative="1" as="geometry">
                        <mxPoint x="-670" y="-1000" as="sourcePoint"/>
                        <mxPoint x="-590" y="-1040.71" as="targetPoint"/>
                    </mxGeometry>
                </mxCell>
                <mxCell id="_rYu2nPlfyyz6sexi9bu-12" value="" style="endArrow=none;html=1;entryX=0;entryY=0.5;entryDx=0;entryDy=0;" parent="1" target="B0guJ4K7h7i6kviaL2ei-14" edge="1">
                    <mxGeometry width="50" height="50" relative="1" as="geometry">
                        <mxPoint x="-670" y="-480" as="sourcePoint"/>
                        <mxPoint x="-600" y="-475" as="targetPoint"/>
                    </mxGeometry>
                </mxCell>
                <mxCell id="_rYu2nPlfyyz6sexi9bu-13" value="" style="endArrow=none;html=1;entryX=0;entryY=0.5;entryDx=0;entryDy=0;rounded=0;" parent="1" target="B0guJ4K7h7i6kviaL2ei-4" edge="1">
                    <mxGeometry width="50" height="50" relative="1" as="geometry">
                        <mxPoint x="-670" y="-440" as="sourcePoint"/>
                        <mxPoint x="-658" y="-130" as="targetPoint"/>
                        <Array as="points">
                            <mxPoint x="-670" y="-80"/>
                        </Array>
                    </mxGeometry>
                </mxCell>
                <mxCell id="_rYu2nPlfyyz6sexi9bu-14" value="" style="endArrow=none;html=1;" parent="1" target="B0guJ4K7h7i6kviaL2ei-2" edge="1">
                    <mxGeometry width="50" height="50" relative="1" as="geometry">
                        <mxPoint x="-670" y="-370" as="sourcePoint"/>
                        <mxPoint x="-430" y="-370" as="targetPoint"/>
                    </mxGeometry>
                </mxCell>
                <mxCell id="_rYu2nPlfyyz6sexi9bu-15" value="" style="endArrow=none;html=1;entryX=0;entryY=0.5;entryDx=0;entryDy=0;" parent="1" target="B0guJ4K7h7i6kviaL2ei-3" edge="1">
                    <mxGeometry width="50" height="50" relative="1" as="geometry">
                        <mxPoint x="-670" y="-180" as="sourcePoint"/>
                        <mxPoint x="-457.9999999999998" y="-180" as="targetPoint"/>
                    </mxGeometry>
                </mxCell>
                <mxCell id="_rYu2nPlfyyz6sexi9bu-16" value="" style="endArrow=none;html=1;exitX=1;exitY=0.5;exitDx=0;exitDy=0;rounded=0;" parent="1" source="B0guJ4K7h7i6kviaL2ei-22" edge="1">
                    <mxGeometry width="50" height="50" relative="1" as="geometry">
                        <mxPoint x="-78" y="-730" as="sourcePoint"/>
                        <mxPoint x="-58" y="-440" as="targetPoint"/>
                        <Array as="points">
                            <mxPoint x="-158" y="-700"/>
                            <mxPoint x="-158" y="-440"/>
                        </Array>
                    </mxGeometry>
                </mxCell>
                <mxCell id="_rYu2nPlfyyz6sexi9bu-17" value="" style="endArrow=none;html=1;entryX=1;entryY=0.5;entryDx=0;entryDy=0;" parent="1" target="B0guJ4K7h7i6kviaL2ei-21" edge="1">
                    <mxGeometry width="50" height="50" relative="1" as="geometry">
                        <mxPoint x="-158" y="-590" as="sourcePoint"/>
                        <mxPoint x="-148" y="-570" as="targetPoint"/>
                    </mxGeometry>
                </mxCell>
                <mxCell id="_rYu2nPlfyyz6sexi9bu-18" value="" style="endArrow=none;html=1;entryX=1;entryY=0.5;entryDx=0;entryDy=0;" parent="1" edge="1">
                    <mxGeometry width="50" height="50" relative="1" as="geometry">
                        <mxPoint x="-158" y="-481.67" as="sourcePoint"/>
                        <mxPoint x="-228" y="-481.6699999999998" as="targetPoint"/>
                    </mxGeometry>
                </mxCell>
                <mxCell id="_rYu2nPlfyyz6sexi9bu-19" value="" style="endArrow=none;html=1;exitX=1;exitY=0.5;exitDx=0;exitDy=0;rounded=0;" parent="1" source="B0guJ4K7h7i6kviaL2ei-2" edge="1">
                    <mxGeometry width="50" height="50" relative="1" as="geometry">
                        <mxPoint x="-228" y="-320" as="sourcePoint"/>
                        <mxPoint x="-158" y="-440" as="targetPoint"/>
                        <Array as="points">
                            <mxPoint x="-158" y="-370"/>
                        </Array>
                    </mxGeometry>
                </mxCell>
                <mxCell id="_rYu2nPlfyyz6sexi9bu-20" value="" style="endArrow=none;html=1;exitX=1;exitY=0.5;exitDx=0;exitDy=0;rounded=0;" parent="1" source="B0guJ4K7h7i6kviaL2ei-3" edge="1">
                    <mxGeometry width="50" height="50" relative="1" as="geometry">
                        <mxPoint x="-198" y="-160" as="sourcePoint"/>
                        <mxPoint x="-158" y="-380" as="targetPoint"/>
                        <Array as="points">
                            <mxPoint x="-158" y="-180"/>
                        </Array>
                    </mxGeometry>
                </mxCell>
                <mxCell id="_rYu2nPlfyyz6sexi9bu-21" value="" style="endArrow=none;html=1;exitX=1;exitY=0.5;exitDx=0;exitDy=0;rounded=0;" parent="1" source="B0guJ4K7h7i6kviaL2ei-4" edge="1">
                    <mxGeometry width="50" height="50" relative="1" as="geometry">
                        <mxPoint x="-337.9999999999998" y="-40" as="sourcePoint"/>
                        <mxPoint x="-158" y="-240" as="targetPoint"/>
                        <Array as="points">
                            <mxPoint x="-158" y="-80"/>
                        </Array>
                    </mxGeometry>
                </mxCell>
                <mxCell id="_rYu2nPlfyyz6sexi9bu-22" value="" style="endArrow=none;html=1;exitX=1;exitY=0.5;exitDx=0;exitDy=0;rounded=0;" parent="1" source="B0guJ4K7h7i6kviaL2ei-19" edge="1">
                    <mxGeometry width="50" height="50" relative="1" as="geometry">
                        <mxPoint x="-28" y="-630" as="sourcePoint"/>
                        <mxPoint x="-38" y="-790" as="targetPoint"/>
                        <Array as="points">
                            <mxPoint x="-38" y="-820"/>
                        </Array>
                    </mxGeometry>
                </mxCell>
                <mxCell id="2" value="" style="endArrow=none;html=1;" edge="1" parent="1">
                    <mxGeometry width="50" height="50" relative="1" as="geometry">
                        <mxPoint x="-200" y="-370" as="sourcePoint"/>
                        <mxPoint x="-200" y="-820" as="targetPoint"/>
                    </mxGeometry>
                </mxCell>
                <mxCell id="3" value="" style="endArrow=none;html=1;rounded=0;" edge="1" parent="1">
                    <mxGeometry width="50" height="50" relative="1" as="geometry">
                        <mxPoint x="-160" y="-80" as="sourcePoint"/>
                        <mxPoint x="-120" y="-820" as="targetPoint"/>
                        <Array as="points">
                            <mxPoint x="-120" y="-80"/>
                        </Array>
                    </mxGeometry>
                </mxCell>
            </root>
        </mxGraphModel>
    </diagram>
</mxfile>